<?xml version="1.0" encoding="UTF-8" standalone="no"?>
<!DOCTYPE svg PUBLIC "-//W3C//DTD SVG 1.1//EN" "http://www.w3.org/Graphics/SVG/1.1/DTD/svg11.dtd">
<!-- Created with Vectornator (http://vectornator.io/) -->
<svg height="100%" stroke-miterlimit="10" style="fill-rule:nonzero;clip-rule:evenodd;stroke-linecap:round;stroke-linejoin:round;" version="1.1" viewBox="0 0 200 200" width="100%" xml:space="preserve" xmlns="http://www.w3.org/2000/svg" xmlns:vectornator="http://vectornator.io" xmlns:xlink="http://www.w3.org/1999/xlink">
<defs/>
<g id="Layer-1" vectornator:layerName="Layer 1">
<g opacity="1" vectornator:layerName="Grandpa">
<path d="M141.825 37.8405L100 34.7426L58.1753 37.8405C45.1335 38.8071 35.2259 49.9737 35.8203 63.0373L37.1712 92.7384L162.829 92.7384L164.18 63.0373C164.772 49.9737 154.866 38.8071 141.825 37.8405Z" fill="#ffffff" fill-rule="nonzero" opacity="1" stroke="none" vectornator:layerName="path"/>
<path d="M167.916 102.885C165.842 110.62 158.834 117.964 153.035 116.41C147.235 114.857 144.836 104.992 146.909 97.2573C148.982 89.5221 154.738 86.847 160.54 88.4008C166.342 89.9546 169.989 95.1501 167.916 102.885Z" fill="#efd8be" fill-rule="nonzero" opacity="1" stroke="none" vectornator:layerName="path"/>
<path d="M157.392 110.258L156.401 134.979C155.918 147.303 147.677 157.984 135.861 161.56L120.178 166.345L117.35 167.215L115.49 167.771C105.389 170.84 94.6112 170.84 84.5103 167.771L79.8223 166.345L78.9765 166.079L64.1392 161.56C52.3226 157.984 44.0823 147.303 43.599 134.979L42.8499 116.154C38.2103 114.535 33.6672 108.832 32.0724 102.888C30.0183 95.1549 33.6672 89.9595 39.4668 88.3887C41.6658 87.8088 43.889 87.833 45.8705 88.5337C45.9914 88.3163 46.1122 88.0746 46.233 87.8571L47.0546 86.4314C49.2778 82.6375 50.5827 78.3845 50.8968 73.9864L51.1627 70.265C52.3467 53.7362 62.7135 39.8897 77.0191 33.5827C82.3838 31.2145 88.3283 29.9096 94.5387 29.9096L105.461 29.9096C125.132 29.9096 141.926 43.0312 147.218 61.2515C148.064 64.1272 148.62 67.1478 148.837 70.265L149.103 73.9864C149.417 78.3845 150.722 82.6375 152.945 86.4314L153.767 87.8571C155.41 90.6844 156.546 93.7292 157.15 96.8948L157.392 110.258Z" fill="#faefde" fill-rule="nonzero" opacity="1" stroke="none" vectornator:layerName="path"/>
<path d="M140.191 63.6898L139.978 63.7647C136.54 64.956 132.874 63.3152 131.192 60.0892C126.323 50.7543 116.538 44.4086 105.461 44.4086L94.5387 44.4086C92.5814 44.4086 90.6675 44.6067 88.8092 44.9861C85.5421 45.6506 82.2194 44.179 80.7502 41.185L80.6511 40.9844C78.6019 36.8087 81.0209 31.7896 85.5735 30.8351C88.4709 30.2286 91.4722 29.9096 94.5387 29.9096L105.461 29.9096C122.285 29.9096 137.004 39.5079 144.224 53.6855C146.191 57.5495 144.287 62.2689 140.191 63.6898Z" fill="#fff7f0" fill-rule="nonzero" opacity="1" stroke="none" vectornator:layerName="path"/>
<path d="M42.0042 87.9054C43.471 87.6614 47.8883 86.8543 46.8371 87.9054C42.0042 92.7384 44.4206 109.654 42.0042 114.487C38.5872 121.321 32.3382 102.404 32.3382 102.404C32.3382 102.404 27.5052 90.3219 42.0042 87.9054Z" fill="#efd8be" fill-rule="nonzero" opacity="1" stroke="none" vectornator:layerName="path"/>
<path d="M92.7505 99.9879C92.7505 106.657 87.3376 112.07 80.6681 112.07C79.6531 112.07 78.6624 111.95 77.7199 111.708C74.1918 110.814 71.2679 108.373 69.7455 105.159C68.9964 103.588 68.5856 101.849 68.5856 99.9879C68.5856 93.3184 73.9985 87.9054 80.6681 87.9054C82.5288 87.9054 84.2686 88.3163 85.8393 89.0654C89.0533 90.5878 91.4939 93.5117 92.388 97.0398C92.6297 97.9822 92.7505 98.973 92.7505 99.9879ZM131.414 99.9879C131.414 106.657 126.001 112.07 119.332 112.07C116.988 112.07 114.813 111.418 112.977 110.258C110.995 109.05 109.424 107.262 108.409 105.159C107.66 103.588 107.249 101.849 107.249 99.9879C107.249 93.3184 112.662 87.9054 119.332 87.9054C121.193 87.9054 122.933 88.3163 124.503 89.0654C126.606 90.0803 128.394 91.651 129.602 93.6325C130.762 95.4691 131.414 97.6439 131.414 99.9879Z" fill="#c5e4fa" fill-rule="nonzero" opacity="1" stroke="none" vectornator:layerName="path"/>
<path d="M131.414 99.9879C131.414 106.657 126.001 112.07 119.332 112.07C116.988 112.07 114.813 111.418 112.977 110.258L129.602 93.6325C130.762 95.4691 131.414 97.6439 131.414 99.9879ZM124.503 89.0654L108.409 105.159C107.66 103.588 107.249 101.849 107.249 99.9879C107.249 93.3184 112.662 87.9054 119.332 87.9054C121.193 87.9054 122.933 88.3163 124.503 89.0654ZM92.388 97.0398L77.7199 111.708C74.1918 110.814 71.2679 108.373 69.7455 105.159L85.8393 89.0654C89.0533 90.5878 91.4939 93.5117 92.388 97.0398Z" fill="#e3f2ff" fill-rule="nonzero" opacity="1" stroke="none" vectornator:layerName="path"/>
<path d="M100 121.736C116.915 121.736 128.998 133.819 128.998 141.068L109.666 141.068L100 136.235L87.9175 141.068L71.0021 141.068C71.0021 141.068 71.0021 121.736 100 121.736Z" fill="#ffffff" fill-rule="nonzero" opacity="1" stroke="none" vectornator:layerName="path"/>
<path d="M127.427 166.345L117.35 167.215L115.49 167.771C105.389 170.84 94.6112 170.84 84.5103 167.771L72.5728 166.345C78.2516 162.817 83.0845 157.979 100 157.984C116.915 157.989 121.748 162.817 127.427 166.345Z" fill="#efd8be" fill-rule="nonzero" opacity="1" stroke="none" vectornator:layerName="path"/>
<path d="M169.281 92.1343C168.363 90.4911 167.058 89.0895 165.463 88.0504L166.599 63.1364C167.251 48.6858 156.449 36.5066 141.999 35.4434L129.795 34.5251C122.715 30.0788 114.354 27.4931 105.461 27.4931L94.5387 27.4931C85.646 27.4931 77.285 30.0788 70.2046 34.5251L58.0013 35.4434C43.5507 36.5066 32.749 48.6858 33.4014 63.1364L34.5372 88.0504C32.9423 89.0895 31.6374 90.4911 30.7191 92.1343C28.9309 95.2999 28.6168 99.2388 29.7525 103.516C31.3957 109.654 35.7696 115.357 40.4818 117.773L41.1825 135.075C41.7142 148.414 50.6552 159.989 63.4143 163.88L83.8095 170.09C89.1016 171.685 94.5629 172.507 100 172.507C105.437 172.507 110.898 171.685 116.191 170.09L136.586 163.88C149.345 159.989 158.286 148.414 158.817 135.075L159.518 117.773C160.871 117.097 162.225 116.13 163.53 114.874C166.671 111.901 169.112 107.745 170.247 103.516C171.383 99.2388 171.069 95.2999 169.281 92.1343ZM141.636 40.2522C153.453 41.1221 162.297 51.0781 161.766 62.9189L160.702 85.9723C158.866 85.5131 157.053 85.4648 155.338 85.7306L155.024 85.2231C153.018 81.7676 151.81 77.8045 151.52 73.8173L151.254 70.0959C150.384 58.1584 144.947 47.55 136.731 39.8897L141.636 40.2522ZM58.3638 40.2522L63.2693 39.8897C55.0532 47.55 49.6161 58.1584 48.7462 70.0959L48.4804 73.8173C48.1904 77.8045 46.9821 81.7676 44.9764 85.2231L44.6623 85.7306C42.9466 85.4648 41.1342 85.5131 39.2977 85.9723L38.2344 62.9189C37.7028 51.0781 46.5472 41.1221 58.3638 40.2522ZM165.584 102.259C164.69 105.618 162.684 109.026 160.219 111.37C160.074 111.515 159.905 111.66 159.76 111.78L159.808 110.355C159.857 109.026 158.817 107.89 157.488 107.842C156.111 107.793 155.024 108.832 154.975 110.161L154.806 114.197L154.613 119.03L153.984 134.882C153.525 146.167 145.962 155.978 135.16 159.265L114.765 165.451C105.099 168.399 94.9012 168.399 85.2352 165.451L64.84 159.265C54.0383 155.978 46.4747 146.167 46.0155 134.882L45.4452 120.555C45.4452 120.528 45.4597 120.504 45.4573 120.477L45.0296 109.813C44.9764 108.482 43.8745 107.45 42.5189 107.496C41.185 107.549 40.1483 108.673 40.2014 110.007L40.2715 111.756C37.6883 109.475 35.3999 105.906 34.4164 102.259C33.5948 99.2388 33.7881 96.5565 34.9238 94.5025C34.9963 94.3575 35.093 94.2367 35.1896 94.0917C36.2287 92.4726 37.9203 91.3127 40.0951 90.7327C41.835 90.2736 43.5749 90.2978 45.0973 90.8052C45.943 91.0952 46.8371 90.9019 47.4654 90.3219C47.6829 90.1528 47.8521 89.9353 47.9971 89.6937L49.157 87.6638C51.5251 83.5558 52.975 78.8919 53.3133 74.1556L53.5792 70.4342C54.5216 57.4093 61.6019 46.0759 71.8237 39.2614C75.8592 36.555 80.3781 34.5493 85.2111 33.4135C88.2075 32.6886 91.349 32.3261 94.5387 32.3261L105.461 32.3261C108.651 32.3261 111.792 32.6886 114.789 33.4135C119.622 34.5493 124.141 36.555 128.176 39.2614C138.398 46.0759 145.478 57.4093 146.421 70.4342L146.687 74.1556C147.025 78.8194 148.427 83.4349 150.746 87.4946C150.771 87.543 150.819 87.6155 150.843 87.6638L151.689 89.0895C151.93 89.5003 152.148 89.9111 152.365 90.3219C152.607 90.8052 152.825 91.3127 153.042 91.796C153.525 92.8834 153.936 93.995 154.25 95.1549C154.468 95.8799 154.637 96.6048 154.782 97.3539C155.024 98.6588 156.304 99.5046 157.609 99.263C158.914 99.0213 159.784 97.7406 159.518 96.4357C159.446 96.0007 159.349 95.5899 159.228 95.1549C158.866 93.5359 158.358 91.941 157.73 90.4186C158.431 90.4186 159.156 90.5394 159.905 90.7327C162.08 91.3127 163.771 92.4726 164.81 94.0917C164.907 94.2367 165.004 94.3575 165.076 94.5025C165.753 95.7107 166.091 97.1365 166.091 98.7313C166.091 99.8429 165.922 101.027 165.584 102.259Z" fill="#8d6c9f" fill-rule="nonzero" opacity="1" stroke="none" vectornator:layerName="path"/>
<path d="M119.332 85.489C115.567 85.489 112.143 86.9437 109.562 89.3046C109.047 84.4571 104.98 80.656 100 80.656C95.0196 80.656 90.9526 84.4571 90.4379 89.3046C87.8571 86.9437 84.4329 85.489 80.6681 85.489C72.6719 85.489 66.1691 91.9917 66.1691 99.9879C66.1691 107.984 72.6719 114.487 80.6681 114.487C88.6642 114.487 95.167 107.984 95.167 99.9879C95.167 99.3765 95.1163 98.7773 95.0438 98.1852C95.0969 97.9846 95.167 97.7889 95.167 97.5714L95.167 90.3219C95.167 87.6566 97.3346 85.489 100 85.489C102.665 85.489 104.833 87.6566 104.833 90.3219L104.833 97.5714C104.833 97.7889 104.903 97.9846 104.956 98.1852C104.884 98.7773 104.833 99.3765 104.833 99.9879C104.833 107.984 111.336 114.487 119.332 114.487C127.328 114.487 133.831 107.984 133.831 99.9879C133.831 91.9917 127.328 85.489 119.332 85.489ZM80.6681 109.654C75.3373 109.654 71.0021 105.319 71.0021 99.9879C71.0021 94.6571 75.3373 90.3219 80.6681 90.3219C85.9988 90.3219 90.334 94.6571 90.334 99.9879C90.334 105.319 85.9988 109.654 80.6681 109.654ZM119.332 109.654C114.001 109.654 109.666 105.319 109.666 99.9879C109.666 94.6571 114.001 90.3219 119.332 90.3219C124.663 90.3219 128.998 94.6571 128.998 99.9879C128.998 105.319 124.663 109.654 119.332 109.654ZM94.6523 49.0796C94.7175 49.0796 94.7828 49.0772 94.848 49.0724C96.1795 48.9661 97.1703 47.8013 97.064 46.4722L96.6894 41.7988C96.5855 40.4673 95.3917 39.4596 94.0893 39.5828C92.7578 39.6892 91.767 40.8539 91.8733 42.183L92.2479 46.8541C92.347 48.1203 93.4054 49.0796 94.6523 49.0796ZM127.824 60.4396C128.544 60.4396 129.259 60.1182 129.735 59.5044L132.519 55.9159C133.336 54.8623 133.145 53.3448 132.091 52.5256C131.04 51.7088 129.52 51.8997 128.701 52.9533L125.917 56.5418C125.1 57.5954 125.291 59.1129 126.345 59.9321C126.782 60.2728 127.304 60.4396 127.824 60.4396ZM116.865 53.3254C117.176 53.4607 117.5 53.526 117.822 53.526C118.757 53.526 119.646 52.9774 120.04 52.0664L121.872 47.8207C122.401 46.5955 121.835 45.1746 120.61 44.6454C119.388 44.1113 117.962 44.6816 117.435 45.9068L115.603 50.1526C115.074 51.3753 115.64 52.7986 116.865 53.3254ZM106.119 49.6185C106.251 49.6403 106.382 49.6499 106.512 49.6499C107.675 49.6499 108.699 48.809 108.893 47.6249L109.647 43.007C109.862 41.69 108.97 40.4455 107.653 40.2329C106.334 40.0275 105.094 40.9119 104.879 42.2265L104.125 46.8444C103.907 48.1614 104.802 49.4035 106.119 49.6185ZM100 119.32C84.5127 119.32 71.4757 126.966 68.9988 137.499C68.6557 138.964 68.994 140.479 69.9243 141.656C70.8474 142.818 72.2248 143.485 73.7085 143.485L86.8084 143.485C89.3843 143.485 91.97 142.883 94.2802 141.745L98.9343 139.454C99.6109 139.121 100.389 139.121 101.068 139.454L105.72 141.743C108.032 142.881 110.616 143.482 113.192 143.482L126.291 143.482C127.773 143.482 129.153 142.815 130.073 141.653C131.004 140.476 131.342 138.964 130.999 137.497C128.524 126.966 115.487 119.32 100 119.32ZM113.192 138.652C111.35 138.652 109.506 138.222 107.854 137.407L103.202 135.119C102.199 134.624 101.1 134.377 100 134.377C98.9005 134.377 97.801 134.624 96.7981 135.116L92.144 137.407C90.4935 138.222 88.6473 138.652 86.8084 138.652L73.7061 138.606C75.6417 130.366 86.9461 124.153 100 124.153C113.054 124.153 124.358 130.366 126.291 138.652L113.192 138.652ZM104.833 148.318L95.167 148.318C93.8331 148.318 92.7505 149.4 92.7505 150.734C92.7505 152.068 93.8331 153.151 95.167 153.151L104.833 153.151C106.167 153.151 107.249 152.068 107.249 150.734C107.249 149.4 106.167 148.318 104.833 148.318Z" fill="#8d6c9f" fill-rule="nonzero" opacity="1" stroke="none" vectornator:layerName="path"/>
</g>
</g>
</svg>
