<?xml version="1.0" encoding="UTF-8" standalone="no"?>
<!DOCTYPE svg PUBLIC "-//W3C//DTD SVG 1.1//EN" "http://www.w3.org/Graphics/SVG/1.1/DTD/svg11.dtd">
<!-- Created with Vectornator (http://vectornator.io/) -->
<svg height="100%" stroke-miterlimit="10" style="fill-rule:nonzero;clip-rule:evenodd;stroke-linecap:round;stroke-linejoin:round;" version="1.1" viewBox="0 0 200 200" width="100%" xml:space="preserve" xmlns="http://www.w3.org/2000/svg" xmlns:vectornator="http://vectornator.io" xmlns:xlink="http://www.w3.org/1999/xlink">
<defs/>
<g id="Layer-1" vectornator:layerName="Layer 1">
<g opacity="1" vectornator:layerName="Elderly Person">
<path d="M112.891 48.9502C103.906 48.9502 96.5547 41.599 96.5547 32.6143C96.5547 23.6295 103.906 16.2783 112.891 16.2783C121.875 16.2783 129.227 23.6295 129.227 32.6143C129.227 41.599 121.875 48.9502 112.891 48.9502" fill="#ffb74d" fill-rule="nonzero" opacity="1" stroke="none" vectornator:layerName="path"/>
<path d="M124.326 102.45L123.509 100C121.059 95.916 114.524 91.0152 106.765 95.916C102.681 98.3664 100.639 102.45 100.639 106.943C101.047 110.21 102.272 112.252 102.272 112.66L104.314 116.336L111.257 112.252L109.215 108.576C109.215 108.576 108.807 107.351 108.398 106.534C108.398 105.718 108.398 104.492 110.44 103.267C113.299 101.634 114.933 103.267 116.158 104.492L137.395 183.722L145.563 183.722L124.326 102.45Z" fill="#795548" fill-rule="nonzero" opacity="1" stroke="none" vectornator:layerName="path"/>
<path d="M63.8828 116.336C63.4744 116.336 63.066 116.336 62.6576 116.336C54.8981 115.519 48.7721 108.985 49.5889 100.817C52.8561 59.977 73.276 43.2326 75.7264 41.599C81.8524 36.6982 90.8371 37.9234 95.7379 44.0494C100.639 50.1754 99.4135 59.1602 93.2875 64.0609C92.4707 64.8777 80.2188 75.4961 78.1768 102.859C77.36 110.618 71.234 116.336 63.8828 116.336Z" fill="#2196f3" fill-rule="nonzero" opacity="1" stroke="none" vectornator:layerName="path"/>
<path d="M121.059 110.21C118.2 110.21 115.749 108.985 114.116 106.126L81.444 53.0342C78.9936 49.3586 80.2188 44.0494 84.3028 41.599C87.9783 39.1486 93.2875 40.3738 95.7379 44.4578L128.41 97.5496C130.86 101.225 129.635 106.534 125.551 108.985C123.917 109.802 122.692 110.21 121.059 110.21ZM55.7149 183.722C54.4897 183.722 53.6729 183.313 52.4477 182.905C48.3637 181.271 46.3217 176.371 48.3637 172.287L63.4744 138.389L50.8141 107.76C49.1805 103.676 52.8561 100 56.9401 98.3664C61.024 96.7328 65.9248 98.7748 67.5584 103.267L79.8104 135.939C80.6272 137.981 80.6272 140.023 79.8104 142.065L63.4744 178.821C61.8408 182.088 58.9821 183.722 55.7149 183.722Z" fill="#2196f3" fill-rule="nonzero" opacity="1" stroke="none" vectornator:layerName="path"/>
<path d="M100.639 183.722C96.9631 183.722 93.6959 181.271 92.4707 177.187L84.7112 142.473L50.4057 107.76C50.4057 107.76 54.8981 102.859 58.1653 100C61.4324 97.1412 68.7836 94.6908 71.6424 97.958L98.1883 133.489C99.0051 134.714 99.8219 135.939 99.8219 137.164L107.99 173.92C108.807 178.412 106.356 182.496 101.864 183.722C101.864 183.722 101.047 183.722 100.639 183.722Z" fill="#2196f3" fill-rule="nonzero" opacity="1" stroke="none" vectornator:layerName="path"/>
<path d="M50.8141 107.76L77.7684 146.557L79.8104 142.065C80.6272 140.84 80.6272 139.206 80.2188 137.573L50.8141 107.76Z" fill="#1976d2" fill-rule="nonzero" opacity="1" stroke="none" vectornator:layerName="path"/>
</g>
</g>
</svg>
