<?xml version="1.0" encoding="UTF-8" standalone="no"?>
<!DOCTYPE svg PUBLIC "-//W3C//DTD SVG 1.1//EN" "http://www.w3.org/Graphics/SVG/1.1/DTD/svg11.dtd">
<!-- Created with Vectornator (http://vectornator.io/) -->
<svg height="100%" stroke-miterlimit="10" style="fill-rule:nonzero;clip-rule:evenodd;stroke-linecap:round;stroke-linejoin:round;" version="1.1" viewBox="0 0 200 200" width="100%" xml:space="preserve" xmlns="http://www.w3.org/2000/svg" xmlns:vectornator="http://vectornator.io" xmlns:xlink="http://www.w3.org/1999/xlink">
<defs/>
<g id="Layer-1" vectornator:layerName="Layer 1">
<g opacity="1" vectornator:layerName="Cursor">
<path d="M90.2344 147.645L76.8964 134.307L88.2224 127.623C88.8854 127.232 89.2604 126.514 89.2014 125.746C89.1424 124.978 88.6604 124.326 87.9444 124.042L47.4474 107.972C46.6934 107.672 45.8684 107.844 45.2954 108.417C44.7224 108.99 44.5514 109.814 44.8504 110.568L60.9214 151.068C61.2054 151.783 61.8584 152.264 62.6254 152.324C63.3854 152.378 64.1114 152.01 64.5024 151.347L71.2364 139.958L84.5774 153.302C85.1444 153.868 85.8974 154.181 86.6994 154.181C87.5014 154.181 88.2544 153.869 88.8204 153.302L90.2354 151.888C91.4034 150.718 91.4034 148.814 90.2344 147.645ZM88.8204 150.474L87.4054 151.888C87.0284 152.267 86.3694 152.267 85.9914 151.888L72.6494 138.545C72.2704 138.165 71.7674 137.959 71.2394 137.959C71.1554 137.959 71.0694 137.964 70.9844 137.975C70.3664 138.053 69.8304 138.406 69.5134 138.942L62.7804 150.33L46.7094 109.831L87.2064 125.901L75.8804 132.584C75.3434 132.9 74.9914 133.436 74.9124 134.054C74.8334 134.672 75.0414 135.28 75.4824 135.721L88.8204 149.059C89.2094 149.448 89.2094 150.084 88.8204 150.474Z" fill="#ffffff" fill-rule="nonzero" opacity="1" stroke="none" vectornator:layerName="path"/>
<path d="M76.8554 126.114C77.2534 126.114 77.6294 125.875 77.7854 125.483C77.9894 124.969 77.7384 124.388 77.2244 124.184L62.5284 118.353C62.0124 118.149 61.4334 118.401 61.2304 118.914C61.0264 119.428 61.2774 120.009 61.7914 120.213L76.4874 126.044C76.6084 126.092 76.7324 126.114 76.8554 126.114ZM58.4674 116.741L55.3194 115.492C54.8044 115.288 54.2244 115.54 54.0214 116.053C53.8174 116.567 54.0684 117.148 54.5824 117.352L57.7304 118.601C57.8514 118.649 57.9764 118.671 58.0984 118.671C58.4964 118.671 58.8724 118.432 59.0284 118.04C59.2314 117.526 58.9804 116.945 58.4674 116.741ZM40.9074 102.722C40.5164 102.331 39.8844 102.331 39.4934 102.722C39.1024 103.113 39.1024 103.745 39.4934 104.136L40.9594 105.602C41.1544 105.797 41.4104 105.895 41.6664 105.895C41.9224 105.895 42.1774 105.797 42.3734 105.602C42.7644 105.211 42.7644 104.579 42.3734 104.188L40.9074 102.722ZM47.0634 104.073C47.6154 104.073 48.0634 103.626 48.0634 103.073L48.0634 101C48.0634 100.447 47.6154 100 47.0634 100C46.5114 100 46.0634 100.447 46.0634 101L46.0634 103.073C46.0634 103.626 46.5114 104.073 47.0634 104.073ZM40.8444 110.292C40.8444 109.739 40.3964 109.292 39.8444 109.292L37.7714 109.292C37.2194 109.292 36.7714 109.739 36.7714 110.292C36.7714 110.845 37.2194 111.292 37.7714 111.292L39.8444 111.292C40.3974 111.292 40.8444 110.845 40.8444 110.292ZM40.9594 114.982L39.4934 116.448C39.1024 116.839 39.1024 117.471 39.4934 117.862C39.6884 118.057 39.9444 118.155 40.2004 118.155C40.4564 118.155 40.7124 118.057 40.9074 117.862L42.3734 116.396C42.7644 116.005 42.7644 115.373 42.3734 114.982C41.9824 114.591 41.3494 114.592 40.9594 114.982ZM52.4604 105.895C52.7164 105.895 52.9724 105.797 53.1674 105.602L54.6334 104.136C55.0244 103.745 55.0244 103.113 54.6334 102.722C54.2424 102.331 53.6104 102.331 53.2194 102.722L51.7534 104.188C51.3624 104.579 51.3624 105.211 51.7534 105.602C51.9494 105.797 52.2054 105.895 52.4604 105.895Z" fill="#ffffff" fill-rule="nonzero" opacity="1" stroke="none" vectornator:layerName="path"/>
</g>
<g opacity="1" vectornator:layerName="Cursor 1">
<path d="M101.856 104.506L97.9997 86.0419L111.137 86.6511C111.906 86.687 112.613 86.2916 112.984 85.6166C113.355 84.9417 113.309 84.1322 112.865 83.5025L87.7791 47.8802C87.3125 47.2163 86.528 46.9085 85.7347 47.0742C84.9415 47.2399 84.3472 47.8357 84.1845 48.6303L75.4545 91.3189C75.3006 92.0727 75.5836 92.8328 76.1926 93.303C76.7989 93.7643 77.6079 93.8539 78.2981 93.5133L90.1693 87.671L94.0253 106.142C94.1898 106.926 94.6485 107.6 95.3195 108.039C95.9906 108.479 96.7915 108.63 97.5756 108.465L99.5339 108.057C101.152 107.718 102.195 106.125 101.856 104.506ZM99.1242 106.099L97.1659 106.507C96.6429 106.618 96.0915 106.257 95.9828 105.733L92.1254 87.2625C92.0163 86.737 91.7082 86.2892 91.2664 86C91.1961 85.954 91.1214 85.9111 91.0443 85.8738C90.4845 85.6006 89.8427 85.6025 89.2839 85.8774L77.4142 91.7194L86.1436 49.0316L111.23 84.6539L98.0931 84.0439C97.4707 84.0142 96.8827 84.27 96.4781 84.7438C96.0736 85.2177 95.9147 85.8403 96.0423 86.4508L99.899 104.915C100.012 105.454 99.6633 105.986 99.1242 106.099Z" fill="#ffffff" fill-rule="nonzero" opacity="1" stroke="none" vectornator:layerName="path"/>
<path d="M102.452 79.164C102.785 79.382 103.23 79.3879 103.576 79.1453C104.028 78.8269 104.136 78.2033 103.817 77.7512L94.7136 64.8247C94.3935 64.3715 93.771 64.2653 93.3203 64.5834C92.8681 64.9017 92.76 65.5253 93.0784 65.9775L102.182 78.9039C102.257 79.0104 102.349 79.0967 102.452 79.164ZM92.1982 61.2521L90.2481 58.4832C89.9289 58.0305 89.3056 57.9238 88.8548 58.2419C88.4027 58.5602 88.2945 59.1838 88.6129 59.636L90.563 62.4049C90.638 62.5113 90.7306 62.5982 90.8326 62.665C91.1657 62.8829 91.6112 62.8888 91.9563 62.6462C92.4077 62.3273 92.5158 61.7037 92.1982 61.2521ZM85.1816 39.9061C85.0686 39.3648 84.5397 39.0187 83.9985 39.1318C83.4572 39.2449 83.1111 39.7737 83.2242 40.315L83.6481 42.3444C83.7045 42.6143 83.865 42.8365 84.0792 42.9767C84.2934 43.1169 84.5605 43.1745 84.8312 43.1187C85.3725 43.0056 85.7186 42.4768 85.6055 41.9355L85.1816 39.9061ZM89.5928 44.4075C90.0547 44.7098 90.6744 44.5811 90.9772 44.1183L92.1123 42.3838C92.4152 41.921 92.2851 41.3017 91.8232 40.9994C91.3613 40.6972 90.7417 40.8259 90.4388 41.2886L89.3037 43.0232C89.0009 43.4859 89.131 44.1052 89.5928 44.4075ZM80.9837 46.2058C81.2865 45.743 81.1564 45.1237 80.6945 44.8214L78.9599 43.6863C78.498 43.384 77.8784 43.5127 77.5756 43.9754C77.2728 44.4382 77.4029 45.0575 77.8647 45.3598L79.5993 46.4949C80.062 46.7977 80.6808 46.6685 80.9837 46.2058ZM78.5117 50.1931L76.4823 50.617C75.941 50.73 75.5949 51.2589 75.708 51.8001C75.7643 52.0701 75.9249 52.2923 76.1391 52.4325C76.3533 52.5726 76.6212 52.6308 76.8911 52.5744L78.9206 52.1505C79.4618 52.0375 79.8079 51.5086 79.6948 50.9674C79.5818 50.4261 79.0516 50.0803 78.5117 50.1931ZM93.1111 48.8874C93.3253 49.0276 93.5931 49.0858 93.8631 49.0294L95.8925 48.6055C96.4338 48.4924 96.7799 47.9636 96.6668 47.4223C96.5538 46.881 96.0249 46.5349 95.4837 46.648L93.4542 47.0719C92.9129 47.185 92.5669 47.7138 92.6799 48.2551C92.7371 48.5256 92.8977 48.7478 93.1111 48.8874Z" fill="#ffffff" fill-rule="nonzero" opacity="1" stroke="none" vectornator:layerName="path"/>
</g>
<g opacity="1" vectornator:layerName="Cursor 2">
<path d="M145.962 125.833L156.912 110.474L165.376 120.54C165.872 121.129 166.642 121.38 167.389 121.195C168.137 121.01 168.701 120.427 168.862 119.674L178.018 77.0774C178.189 76.2842 177.883 75.499 177.223 75.0286C176.563 74.5582 175.722 74.5257 175.028 74.9452L137.741 97.4893C137.083 97.8876 136.717 98.6111 136.784 99.3775C136.857 100.136 137.34 100.791 138.058 101.067L150.404 105.826L139.448 121.189C138.984 121.842 138.799 122.636 138.932 123.427C139.065 124.218 139.497 124.909 140.149 125.374L141.778 126.536C143.125 127.494 145.003 127.179 145.962 125.833ZM142.939 124.906L141.31 123.745C140.874 123.435 140.765 122.785 141.076 122.35L152.031 106.986C152.343 106.55 152.463 106.019 152.376 105.499C152.362 105.416 152.343 105.332 152.318 105.25C152.139 104.653 151.702 104.183 151.121 103.959L138.777 99.2007L176.062 76.6569L166.907 119.253L158.444 109.187C158.043 108.71 157.457 108.451 156.834 108.476C156.211 108.5 155.646 108.806 155.284 109.313L144.334 124.673C144.015 125.12 143.388 125.226 142.939 124.906Z" fill="#ffffff" fill-rule="nonzero" opacity="1" stroke="none" vectornator:layerName="path"/>
<path d="M164.986 109.08C165.052 109.472 165.35 109.803 165.762 109.892C166.303 110.009 166.834 109.665 166.95 109.124L170.272 93.6668C170.388 93.1242 170.044 92.5948 169.504 92.4794C168.964 92.3632 168.432 92.7068 168.316 93.2474L164.994 108.705C164.967 108.832 164.966 108.958 164.986 109.08ZM171.191 89.3953L171.902 86.0841C172.018 85.5425 171.674 85.0121 171.134 84.8967C170.594 84.7805 170.062 85.124 169.946 85.6647L169.234 88.9758C169.207 89.1031 169.206 89.23 169.226 89.3503C169.292 89.7429 169.59 90.0742 170.002 90.1632C170.543 90.2785 171.074 89.9349 171.191 89.3953ZM182.114 69.7596C182.435 69.3094 182.331 68.6861 181.881 68.3651C181.43 68.0441 180.807 68.1485 180.486 68.5988L179.283 70.2869C179.123 70.5115 179.068 70.7802 179.111 71.0326C179.153 71.2851 179.292 71.5204 179.516 71.6815C179.967 72.0025 180.59 71.898 180.911 71.4478L182.114 69.7596ZM181.8 76.0543C181.891 76.5987 182.406 76.9666 182.951 76.8752L184.996 76.5326C185.541 76.4412 185.908 75.9255 185.816 75.381C185.725 74.8366 185.21 74.4687 184.665 74.5601L182.62 74.9027C182.075 74.9941 181.708 75.5099 181.8 76.0543ZM174.638 70.9487C175.184 70.8573 175.55 70.3416 175.459 69.7972L175.116 67.7527C175.025 67.2083 174.51 66.8403 173.965 66.9317C173.42 67.0231 173.053 67.5389 173.144 68.0833L173.487 70.1278C173.578 70.6732 174.093 71.0401 174.638 70.9487ZM170.032 71.8373L168.343 70.6338C167.893 70.3128 167.27 70.4173 166.949 70.8675C166.789 71.0921 166.735 71.3607 166.777 71.6132C166.819 71.8657 166.958 72.102 167.183 72.2621L168.871 73.4656C169.321 73.7866 169.944 73.6821 170.265 73.2319C170.586 72.7816 170.481 72.1575 170.032 71.8373ZM180.895 81.6782C180.937 81.9307 181.076 82.1669 181.3 82.327L182.989 83.5306C183.439 83.8515 184.062 83.7471 184.383 83.2968C184.704 82.8466 184.6 82.2233 184.149 81.9023L182.461 80.6988C182.011 80.3778 181.388 80.4822 181.067 80.9325C180.907 81.158 180.852 81.4267 180.895 81.6782Z" fill="#ffffff" fill-rule="nonzero" opacity="1" stroke="none" vectornator:layerName="path"/>
</g>
</g>
</svg>
